<?xml version="1.0" encoding="utf-8"?>
<!-- Generator: Adobe Illustrator 25.2.1, SVG Export Plug-In . SVG Version: 6.00 Build 0)  -->
<svg version="1.1" id="Camada_1" xmlns="http://www.w3.org/2000/svg" xmlns:xlink="http://www.w3.org/1999/xlink" x="0px" y="0px"
	 viewBox="0 0 748 768" style="enable-background:new 0 0 748 768;" xml:space="preserve">
<path d="M332.4,471.4c-10.4,0-15,6.6-15,15.2c0,8.6,4.7,15.2,15,15.2c10.4,0,15-6.6,15-15.2C347.4,478,342.7,471.4,332.4,471.4z
	 M332.4,497.4c-6.6,0-7.9-5.7-7.9-10.7c0-5,1.3-10.7,7.9-10.7c6.6,0,7.9,5.7,7.9,10.7C340.2,491.7,339,497.4,332.4,497.4z
	 M282.4,501.3h6.7v-12.5h12.6V484h-12.6v-7h13.5V472h-20.2V501.3z M306.2,501.3h6.7V472h-6.7V501.3z M430.6,487.9
	c0,4.9-0.3,9.4-6.8,9.4c-6.6,0-6.8-4.5-6.8-9.4V472h-6.7v18.3c0,7.8,6,11.5,13.6,11.5c7.6,0,13.6-3.8,13.6-11.5V472h-6.7V487.9z
	 M398.3,486.8L398.3,486.8c3.9-0.9,6.5-3.4,6.5-7.2c0-6-5.5-7.6-10.9-7.6h-13.3v29.2h6.7v-11.8h7.1c2.2,0.1,2.6,2.3,2.8,3.9
	c0.3,2.6,0.6,5.3,1.2,7.9h7.4c-1.3-1.6-1.5-5.1-1.8-6.9C403.5,490.3,403.5,487.4,398.3,486.8z M393,484.6h-5.6v-7.7h5.6
	c2.9,0,4.7,1.1,4.7,3.7S396,484.6,393,484.6z M465.5,476.9V472h-22.7v4.9h14.5l-15.5,19.5v4.9h24v-4.9h-15.8L465.5,476.9z
	 M363.8,476c4,0,6,2.5,6,5.6h7.1c-0.3-7.3-5.9-10.1-13.1-10.1c-9.1,0-13.1,6.7-13.1,15.2c0,8.5,4.1,15.2,13.1,15.2
	c7.2,0,12.8-2.8,13.1-10.1h-7.1c0,3.1-1.9,5.6-6,5.6c-4.8,0-6-6.6-6-10.7C357.8,482.6,359,476,363.8,476z M456.2,343.7v-35.4h-3.1
	v-2c1.7-3.2,2.6-6,2.6-8.4c0-7.1-5.6-13.1-12.8-14.5l-0.1-1.1c0.6-0.6,1-1.5,1-2.4c0-1.1-0.6-2.1-1.5-2.8l-1-10.2c0,0,0-0.8-1.1-0.9
	c0,0-0.1,0-0.1,0c0,0,0,0,0,0c0,0-0.1,0-0.1,0c0,0,0,0,0,0c0,0-0.1,0-0.1,0c-1.5,0-1.5,1-1.5,1l-0.9,10.3c-0.9,0.7-1.5,1.6-1.5,2.8
	c0,0.9,0.4,1.7,1,2.4l-0.1,1.1c-7.1,1.4-12.6,7.4-12.6,14.5c0,2.4,0.8,5.2,2.6,8.4l0,2h-3.2v35.4h-9.8v-24.3l3.1-2.7v-4.5l-3.3-1.6
	l-1.7-3.1h-4.8l-3.1,3.1h-16.1l-2.9-2.9h-4.7l-2.9,2.9h-6.9l-2.9-2.9h-4.7l-2.9,2.9h-16.8l-3.1-3.1h-4.8l-1.7,3.1l-3.3,1.6v4.5
	l3.1,2.7v24.3h-9v-35.2H321v-2.1c1.7-3.2,2.5-6,2.5-8.4c0-7-5.5-13-12.5-14.4l-0.1-1.1c0.6-0.6,1-1.5,1-2.4c0-1.1-0.6-2.1-1.5-2.8
	l-1-10.2c0,0,0-1-1.5-1c0,0,0,0-0.1,0c0,0,0,0,0,0c0,0-0.1,0-0.1,0c0,0-0.1,0-0.1,0c0,0,0,0,0,0c-1.1,0.1-1.2,0.9-1.2,0.9l0,0.3
	l-0.9,9.9c-0.9,0.7-1.5,1.6-1.5,2.8c0,0.9,0.4,1.7,1,2.4l-0.1,1.1c-7.2,1.3-12.9,7.4-12.9,14.5c0,2.4,0.8,5.2,2.6,8.4l0,2h-3.5v35
	h-9.2v6l4,3.5v28.5h-3.8v5.5l3.8,3.1v20h-3.8v5.5l3.8,3.1v18.6l-3.8,3v13.7h183.3v-13.7l-3.8-3V419l3.8-3.1v-5.5h-3.8v-20l3.8-3.1
	v-5.5h-3.8V353l4-3.3v-6H456.2z M459.4,448.2H288.6V444l3.9-6.8v-87.5h5.2v-35.3h3.4v-11l-0.1-0.1c-1.5-1.2-2.4-3.2-2.4-5.5
	c0-4.6,4.2-8.4,9.3-8.4s9.3,3.9,9.3,8.4c0,2.1-0.8,3.8-2.5,5.7l-0.1,0.1l0,0.1l-0.1,10.7h3.5v35.3h21.8l0-31.4l-0.8-1.6h0.2
	l-0.3-0.5l3.2,0.6l0.1-0.3v0.3h62.5l3.7-0.5l-1,2.2v31.3H430v-35.3h3.4l0-0.4l0-2.3v-3.4h-0.1l-0.1-4.9l-0.1-0.1
	c-1.5-1.2-2.4-3.2-2.4-5.5c0-4.6,4.2-8.4,9.3-8.4c5,0,9.3,3.9,9.3,8.4c0,2.1-0.8,3.8-2.6,5.7l-0.1,0.1l0,0.1l0,4.6h-0.1v6h0v0.1h3.3
	v35.3h5.7v88l0.1,0.2l3.8,6.1V448.2z"/>
</svg>
